HIERARCHY
ROOT Hips
{
	OFFSET 0.00000 0.00000 0.00000
	CHANNELS 6 Xposition Yposition Zposition Zrotation Yrotation Xrotation 
	JOINT RightUpLegDummy
	{
		OFFSET 0 0 0
		CHANNELS 3 Zrotation Yrotation Xrotation
		JOINT RightUpLeg
		{
			OFFSET -3.52197 -3.41223 0.04002
			CHANNELS 3 Zrotation Yrotation Xrotation
			JOINT RightLeg
			{
				OFFSET 0.00006 -17.42390 1.60435
				CHANNELS 3 Zrotation Yrotation Xrotation
				JOINT RightFoot
				{
					OFFSET 0.06153 -16.50078 -1.63901
					CHANNELS 3 Zrotation Yrotation Xrotation
					JOINT RightToes
					{
						OFFSET 0.00298 -1.73825 3.34613
						CHANNELS 3 Zrotation Yrotation Xrotation
						End Site
						{
							OFFSET 0.00480 -0.05416 3.85043
						}
					}
				}
			}
		}
	}
	JOINT SpineDummy
	{
		OFFSET 0 0 0
		CHANNELS 3 Zrotation Yrotation Xrotation
		JOINT Spine
		{
			OFFSET 0.00000 4.68130 0.00000
			CHANNELS 3 Zrotation Yrotation Xrotation
			JOINT Spine1
			{
				OFFSET -0.00000 10.10138 0.05002
				CHANNELS 3 Zrotation Yrotation Xrotation
				JOINT HEadDummy
				{
					OFFSET 0 0 0
					CHANNELS 3 Zrotation Yrotation Xrotation
					JOINT Head
					{
						OFFSET -0.00000 3.43865 0.00438
						CHANNELS 3 Zrotation Yrotation Xrotation
						End Site
						{
							OFFSET -0.11417 5.02924 0.98962
						}
					}
				}
				JOINT LeftShoulder1Dummy
				{
					OFFSET 0 0 0
					CHANNELS 3 Zrotation Yrotation Xrotation
					JOINT LeftShoulder1
					{
						OFFSET 3.53937 -0.14262 -0.08662
						CHANNELS 3 Zrotation Yrotation Xrotation
						JOINT LeftArm
						{
							OFFSET 4.04833 -0.00133 0.12681
							CHANNELS 3 Zrotation Yrotation Xrotation
							JOINT LeftForeArm
							{
								OFFSET 10.33880 -0.01036 -0.55515
								CHANNELS 3 Zrotation Yrotation Xrotation
								JOINT LeftHand
								{
									OFFSET 8.69677 0.07543 0.40060
									CHANNELS 3 Zrotation Yrotation Xrotation
									End Site
									{
										OFFSET 5.28377 -0.21905 0.59205
									}
								}
							}
						}
					}
				}
				JOINT RightShoulderDummy
				{
					OFFSET 0 0 0
					CHANNELS 3 Zrotation Yrotation Xrotation
					JOINT RightShoulder
					{
						OFFSET -3.53937 -0.14262 -0.08660
						CHANNELS 3 Zrotation Yrotation Xrotation
						JOINT RightArm
						{
							OFFSET -4.04833 -0.00133 0.12683
							CHANNELS 3 Zrotation Yrotation Xrotation
							JOINT RightForeArm
							{
								OFFSET -10.37987 -0.01039 -0.55511
								CHANNELS 3 Zrotation Yrotation Xrotation
								JOINT RightHand
								{
									OFFSET -8.67398 0.07538 0.40058
									CHANNELS 3 Zrotation Yrotation Xrotation
									End Site
									{
										OFFSET -5.24810 -0.21916 0.59204
									}
								}
							}
						}
					}
				}
			}
		}
	}
	JOINT LeftUpLegDummy
	{
		OFFSET 0 0 0
		CHANNELS 3 Zrotation Yrotation Xrotation
		JOINT LeftUpLeg
		{
			OFFSET 3.52197 -3.41223 0.04002
			CHANNELS 3 Zrotation Yrotation Xrotation
			JOINT LeftLeg
			{
				OFFSET -0.00012 -17.42399 1.60337
				CHANNELS 3 Zrotation Yrotation Xrotation
				JOINT LeftFoot
				{
					OFFSET -0.09972 -16.50070 -1.63802
					CHANNELS 3 Zrotation Yrotation Xrotation
					JOINT LeftToes
					{
						OFFSET -0.01575 -1.73823 3.34611
						CHANNELS 3 Zrotation Yrotation Xrotation
						End Site
						{
							OFFSET 0.03150 -0.01868 3.85031
						}
					}
				}
			}
		}
	}
}
MOTION
Frames: 11
Frame Time: 0.033333
-39.8980 39.9072 61.9789 -179.1910 2.6145 176.5660 0.0000 0.0000 0.0000 1.9857 -1.3951 1.7514 -0.8471 -1.5972 4.9962 -3.1323 0.1901 -3.5965 0.0000 -0.0000 0.0000 0.0000 0.0000 0.0000 0.3481 -0.3798 3.1201 2.8641 -0.9781 1.3135 -0.0000 0.0000 -0.0000 0.9348 -0.4169 -6.9306 -0.0000 0.0000 -0.0000 -33.9176 -3.2902 2.7135 -44.1996 -16.8103 -18.0425 -9.8465 5.0450 51.0140 15.7294 -3.3994 -1.1663 -0.0000 0.0000 -0.0000 35.2331 5.2357 3.6059 39.1483 7.0085 -15.0713 11.4430 -0.9978 23.4775 -11.9699 0.9795 -0.6488 0.0000 0.0000 0.0000 1.9509 1.9011 2.8162 1.3374 3.1127 6.0686 1.1813 -0.0292 -5.9859 0.0000 0.0000 -0.0000
-39.8863 39.9072 61.9687 -179.2430 2.6999 176.5870 0.0000 0.0000 0.0000 1.9583 -1.3903 1.7216 -0.8573 -1.5208 5.0287 -3.1324 0.1902 -3.6232 0.0000 -0.0000 0.0000 0.0000 0.0000 0.0000 0.2519 -0.3120 3.0324 2.9409 -0.9232 1.4021 -0.0000 0.0000 -0.0000 0.8749 -0.0532 -7.2842 -0.0000 0.0000 -0.0000 -34.0009 -3.3152 2.7292 -44.1262 -16.7992 -18.0473 -9.8458 5.0469 51.0935 15.7144 -3.4823 -1.1758 -0.0000 0.0000 -0.0000 35.1758 5.2234 3.5958 39.1914 7.0064 -15.0578 11.4401 -0.9137 23.4209 -11.9484 0.8541 -0.6350 0.0000 0.0000 0.0000 1.9048 1.8742 2.8570 1.3621 3.2250 5.9921 1.1554 -0.0275 -5.9564 0.0000 0.0000 -0.0000
-39.8619 39.9072 61.9486 -179.3130 2.7986 176.6380 0.0000 0.0000 0.0000 1.9440 -1.3619 1.6796 -0.8913 -1.4516 5.0510 -3.1325 0.1903 -3.6514 0.0000 -0.0000 0.0000 0.0000 0.0000 0.0000 0.0793 -0.2179 2.9934 3.0977 -0.8521 1.3878 -0.0000 0.0000 -0.0000 0.8713 0.5553 -7.7637 -0.0000 0.0000 -0.0000 -34.1269 -3.3065 2.7344 -44.0045 -16.7640 -18.0068 -9.8855 5.0440 51.1435 15.7354 -3.6658 -1.2011 -0.0000 0.0000 -0.0000 35.1754 5.2170 3.5931 39.1702 6.9114 -15.0444 11.4329 -0.7367 23.3666 -11.9155 0.5993 -0.6090 0.0000 0.0000 0.0000 1.8479 1.8290 2.9030 1.4066 3.3660 5.8760 1.0958 -0.0237 -5.9222 0.0000 0.0000 -0.0000
-39.8382 39.9072 61.9284 -179.3370 2.7596 176.6720 0.0000 0.0000 0.0000 1.9722 -1.3334 1.6951 -0.9303 -1.5171 5.0208 -3.1397 0.1908 -3.6668 0.0000 -0.0000 0.0000 0.0000 0.0000 0.0000 -0.0057 -0.1976 3.0772 3.1975 -0.8446 1.2511 -0.0000 0.0000 -0.0000 1.0082 1.0810 -8.3324 -0.0000 0.0000 -0.0000 -34.1653 -3.2440 2.7120 -43.9592 -16.8080 -17.9313 -9.9643 5.0495 50.9361 15.7464 -3.6795 -1.2037 -0.0000 0.0000 -0.0000 35.2135 5.2187 3.5972 39.1314 6.7866 -15.0410 11.4251 -0.5885 23.3850 -11.8490 0.5022 -0.5963 0.0000 0.0000 0.0000 1.8310 1.7828 2.9150 1.4571 3.3675 5.8334 1.0483 -0.0207 -5.9233 0.0000 0.0000 -0.0000
-39.8212 39.9072 61.9120 -179.3190 2.6201 176.6570 0.0000 0.0000 0.0000 2.0235 -1.3181 1.7756 -0.9626 -1.6752 4.9731 -3.1715 0.1929 -3.6840 0.0000 -0.0000 0.0000 0.0000 0.0000 0.0000 0.0581 -0.2530 3.1916 3.1689 -0.8953 1.1600 -0.0000 0.0000 -0.0000 1.2231 0.7946 -8.6430 -0.0000 0.0000 -0.0000 -34.1219 -3.1816 2.6840 -44.0079 -16.9297 -17.8711 -10.0383 5.0619 50.5005 15.7695 -3.4474 -1.1756 -0.0000 0.0000 -0.0000 35.1436 5.2084 3.5868 39.2264 6.7773 -15.0116 11.4319 -0.5702 23.4599 -11.6905 0.7234 -0.6088 0.0000 0.0000 0.0000 1.8534 1.7565 2.9181 1.4914 3.2499 5.8780 1.0511 -0.0208 -5.9538 0.0000 0.0000 -0.0000
-39.8040 39.9048 61.8981 -179.3020 2.5700 176.6380 0.0000 0.0000 0.0000 2.0854 -1.2754 1.8249 -1.0059 -1.7793 4.9740 -3.2151 0.1958 -3.7085 0.0000 -0.0000 0.0000 0.0000 0.0000 0.0000 0.1786 -0.2888 3.2358 3.0824 -0.9186 1.1683 -0.0000 0.0000 -0.0000 1.3437 0.4187 -8.6710 -0.0000 0.0000 -0.0000 -34.1280 -3.1813 2.6843 -44.0224 -16.9756 -17.8680 -10.0651 5.0709 50.1936 15.8637 -3.3221 -1.1666 -0.0000 0.0000 -0.0000 34.9705 5.1851 3.5618 39.4278 6.8961 -14.9536 11.4547 -0.6869 23.5630 -11.5135 1.0593 -0.6304 0.0000 0.0000 0.0000 1.8993 1.7756 2.9222 1.4900 3.1793 5.9453 1.0880 -0.0232 -5.9870 0.0000 0.0000 -0.0000
-39.7798 39.9008 61.8865 -179.2960 2.6879 176.6820 0.0000 0.0000 0.0000 2.1675 -1.1743 1.7591 -1.0674 -1.7768 5.0375 -3.2461 0.1978 -3.7300 0.0000 -0.0000 0.0000 0.0000 0.0000 0.0000 0.2409 -0.2431 3.2040 3.0653 -0.8701 1.1858 -0.0000 0.0000 -0.0000 1.2997 0.3149 -8.6103 -0.0000 0.0000 -0.0000 -34.2528 -3.2306 2.7126 -43.9205 -16.8850 -17.9238 -10.0369 5.0698 50.2390 15.9011 -3.5010 -1.1927 -0.0000 0.0000 -0.0000 34.8193 5.1635 3.5397 39.5909 7.0445 -14.9390 11.4657 -0.8767 23.6834 -11.4729 1.2090 -0.6418 0.0000 0.0000 0.0000 1.9697 1.8430 2.8822 1.4561 3.2272 6.0071 1.1174 -0.0251 -6.0201 0.0000 0.0000 -0.0000
-39.7530 39.8962 61.8780 -179.2850 2.8376 176.7770 0.0000 0.0000 0.0000 2.2570 -1.0601 1.6236 -1.1179 -1.7530 5.1146 -3.2528 0.1983 -3.7474 0.0000 -0.0000 0.0000 0.0000 0.0000 0.0000 0.2271 -0.1684 3.1362 3.1489 -0.8093 1.1890 -0.0000 0.0000 -0.0000 1.1995 0.4142 -8.6789 -0.0000 0.0000 -0.0000 -34.3859 -3.2502 2.7296 -43.8173 -16.8029 -17.9696 -10.0025 5.0665 50.3617 15.7018 -3.6105 -1.1914 -0.0000 0.0000 -0.0000 34.7382 5.1493 3.5268 39.6729 7.1732 -15.0042 11.4490 -1.0495 23.7550 -11.5737 1.1542 -0.6424 0.0000 0.0000 0.0000 2.0567 1.9236 2.7799 1.4119 3.2913 6.0836 1.1324 -0.0261 -6.0632 0.0000 0.0000 -0.0000
-39.7316 39.8928 61.8704 -179.2710 2.8758 176.8540 0.0000 0.0000 0.0000 2.3196 -0.9965 1.5275 -1.1399 -1.7857 5.1627 -3.2459 0.1979 -3.7706 0.0000 -0.0000 0.0000 0.0000 0.0000 0.0000 0.2145 -0.1468 3.0614 3.2125 -0.8011 1.2436 -0.0000 0.0000 -0.0000 1.1546 0.3971 -8.8146 -0.0000 0.0000 -0.0000 -34.3638 -3.2012 2.7083 -43.8781 -16.8582 -17.9244 -10.0199 5.0705 50.2217 15.4070 -3.3461 -1.1348 -0.0000 0.0000 -0.0000 34.7360 5.1485 3.5263 39.6905 7.2732 -15.0700 11.4288 -1.1080 23.7054 -11.6317 1.1245 -0.6428 0.0000 0.0000 0.0000 2.1262 1.9757 2.6749 1.3785 3.2760 6.1673 1.1501 -0.0272 -6.1071 0.0000 0.0000 -0.0000
-39.7165 39.8916 61.8602 -179.2720 2.8221 176.8780 0.0000 0.0000 0.0000 2.3482 -0.9752 1.5098 -1.1612 -1.8628 5.1878 -3.2402 0.1977 -3.8007 0.0000 -0.0000 0.0000 0.0000 0.0000 0.0000 0.2757 -0.1786 3.0080 3.1352 -0.8232 1.3375 -0.0000 0.0000 -0.0000 1.1948 0.2810 -8.8803 -0.0000 0.0000 -0.0000 -34.2019 -3.1413 2.6733 -44.0686 -17.0004 -17.8312 -10.0589 5.0759 50.0282 15.3698 -3.0907 -1.0999 -0.0000 0.0000 -0.0000 34.8362 5.1686 3.5432 39.6356 7.2935 -15.0738 11.4197 -1.0248 23.6383 -11.5078 1.2891 -0.6511 0.0000 0.0000 0.0000 2.1530 1.9888 2.6356 1.3641 3.2126 6.2118 1.1591 -0.0278 -6.1329 0.0000 0.0000 -0.0000
-39.7033 39.8920 61.8462 -179.2960 2.7570 176.8630 0.0000 0.0000 0.0000 2.3569 -0.9610 1.5433 -1.2014 -1.9395 5.2092 -3.2514 0.1985 -3.8347 0.0000 -0.0000 0.0000 0.0000 0.0000 0.0000 0.3691 -0.2036 2.9905 3.0017 -0.8265 1.3937 -0.0000 0.0000 -0.0000 1.2786 0.2525 -8.8714 -0.0000 0.0000 -0.0000 -34.1224 -3.1480 2.6706 -44.1833 -17.1297 -17.8587 -10.0085 5.0694 50.2634 15.5858 -3.3208 -1.1453 -0.0000 0.0000 -0.0000 34.9186 5.1842 3.5569 39.6065 7.2195 -15.0894 11.3877 -0.8967 23.7717 -11.2442 1.6510 -0.6681 0.0000 0.0000 0.0000 2.1480 1.9847 2.6760 1.3548 3.1532 6.1883 1.1337 -0.0261 -6.1355 0.0000 0.0000 -0.0000
